<?xml version="1.0" encoding="UTF-8"?>
<svg id="Camada_2" data-name="Camada 2" xmlns="http://www.w3.org/2000/svg" viewBox="0 0 156.44 36.28">
  <defs>
    <style>
      .cls-1, .cls-2 {
        fill: #e30613;
      }

      .cls-1, .cls-3 {
        stroke: #e30613;
        stroke-miterlimit: 10;
      }

      .cls-3 {
        fill: none;
      }
    </style>
  </defs>
  <g id="Camada_1-2" data-name="Camada 1">
    <path class="cls-3" d="M10.24,23.9c.44-5.9,5.18-10.48,10.71-10.71,6.32-.26,11.72,5.23,11.57,11.57-.14,5.89-5.04,10.97-11.02,11.02-6.2.05-11.49-5.33-11.27-11.88Z"/>
    <path class="cls-3" d="M15.63,23.82c.16-2.92,2.56-5.55,5.62-5.62,3.22-.07,5.84,2.73,5.88,5.88.03,3.24-2.69,6.14-6,6-3.25-.14-5.66-3.14-5.49-6.26Z"/>
    <path class="cls-3" d="M10.24,23.21s-8.09-2.26-7.48-4.53L.58,3.71h7.4s.7.52,1.13-2.78h14.71l1.31,7.57-3.74,4.68s-8.01,1.5-11.14,10.03Z"/>
    <path class="cls-3" d="M24.31,13.18s17.41-4.3,22.16-7.79S65.85-.52,72.64.93l-.87,6.38-2.96.23s-1.28.81-.35,1.68l5.74-.81s1.86-.93,7.14,5.45c0,0-17.64.23-24.08,3.13s-22.22,2.49-22.22,2.49l.17,2.03s19.2.71,25.64-3.02,22.05-1.68,22.05-1.68c0,0,3.6,2.38-4.06,8.24,0,0-4.82,3.71-11.72,3.6H31.71s3.85-10.42-7.4-15.48Z"/>
    <path class="cls-3" d="M27.73,15.2s15.61-4.99,19.9-7.89,13.75-5.57,22.63-4.29l-.23,2.2s-4.41.17-3.89,4.58l2.6-.62,5.47-.77"/>
    <path class="cls-3" d="M74.74,8.38s13.16-3.45,16.81-1.89l8.79,5.57s14.97.35,17.93,1.48c0,0,31.24,9.23,34.72,11.57,0,0,1.48,1.69,1.04,3.54h1.48s.96.55,0,2.03h-22.63s2.7-5.31,1.83-7.05c0,0,4.87.38,12.45,5.02h5.05s-.43-2.15-3.05-3.11c-11.4-4.18-16.88-5.92-16.88-5.92,0,0-8.35-7.14-17.75-4.44,0,0-15.32-1.49-18.71-.62,0,0-6,2.1-10.18,1.4,0,0,5.4,6.61-14.1,14.71H30.64"/>
    <path class="cls-3" d="M110.15,23.9c.44-5.9,5.18-10.48,10.71-10.71,6.32-.26,11.72,5.23,11.57,11.57-.14,5.89-5.04,10.97-11.02,11.02-6.2.05-11.49-5.33-11.27-11.88Z"/>
    <path class="cls-3" d="M115.55,24.43c.16-2.92,2.56-5.55,5.62-5.62,3.22-.07,5.84,2.73,5.88,5.88.03,3.24-2.69,6.14-6,6-3.25-.14-5.66-3.14-5.49-6.26Z"/>
    <path class="cls-1" d="M110.8,20.82s-21.32.64-29.29,9.88l22.45.32v-5.1s-.43-2.89,6.23-2.48l.61-2.61Z"/>
    <path class="cls-3" d="M78.03,10.35s9.94-3.33,13.2-1.41l5.35,3.49s-6.05,1.74-7.44,1.57l-7.63-.17-3.48-3.22v-.25Z"/>
    <path class="cls-2" d="M120.07,18.36c.6-.05,1.19-.03,1.79.04l-.66-.09c.69.1,1.35.28,1.99.54l-.6-.25c.72.31,1.38.71,2,1.18l-.51-.39c.74.58,1.36,1.26,2,1.94.9.95,2.64.97,3.54,0,.94-1.02.96-2.52,0-3.54-1.17-1.24-2.39-2.45-3.92-3.24-1.72-.89-3.68-1.36-5.63-1.2-.67.05-1.28.24-1.77.73-.43.43-.76,1.15-.73,1.77.06,1.26,1.1,2.61,2.5,2.5h0Z"/>
    <path class="cls-2" d="M126.9,22.24c.04.08.07.16.11.25l-.25-.6c.21.5.35,1.02.42,1.56l-.09-.66c.03.22.05.45.05.67-.01.34.06.67.22.96.1.31.27.58.52.8l.51.39c.29.18.6.28.93.3.22.06.44.06.66,0,.33-.02.64-.11.93-.3l.51-.39c.31-.31.52-.68.64-1.1.07-.36.14-.74.13-1.11,0-.29-.06-.57-.1-.85-.01-.08-.03-.17-.05-.25-.09-.34-.24-.68-.4-.99-.08-.15-.18-.28-.25-.44l.25.6c-.03-.07-.05-.14-.06-.21l.09.66s0-.09,0-.13l-.09.66s.02-.08.03-.13l-.25.6s.03-.06.04-.08l-.39.51s.04-.05.06-.07l-.51.39.03-.02c.29-.16.53-.37.7-.64.22-.24.37-.52.45-.85.1-.33.12-.66.04-1-.02-.33-.11-.64-.3-.93l-.39-.51c-.31-.31-.68-.52-1.1-.64l-.66-.09c-.45,0-.87.12-1.26.34-.1.07-.19.14-.28.21-.1.07-.19.14-.28.22-.09.09-.16.21-.24.3-.09.11-.17.19-.23.31-.05.11-.09.22-.14.33-.05.11-.1.22-.14.33-.07.26-.1.53-.11.79,0,.03,0,.07,0,.1l.09.66s0,.03,0,.05c.04.16.12.31.18.46.07.17.13.33.22.48.08.13.16.26.22.41l-.25-.6c.06.16.11.32.13.49l-.09-.66c.02.17.02.34,0,.51l.09-.66s-.01.08-.02.13l4.91.66c-.02-.65-.1-1.3-.25-1.93s-.4-1.23-.67-1.81c-.16-.29-.37-.53-.64-.7-.24-.22-.52-.37-.85-.45-.33-.1-.66-.12-1-.04-.33.02-.64.11-.93.3l-.51.39c-.31.31-.52.68-.64,1.1l-.09.66c0,.45.12.87.34,1.26h0Z"/>
    <path class="cls-2" d="M116.67,19.74c3.22,0,3.22-5,0-5s-3.22,5,0,5h0Z"/>
    <g>
      <path class="cls-2" d="M121.96,30.44s0,0,0,0c0,0-.01,0-.02,0,0,0,0,0,.01,0Z"/>
      <path class="cls-2" d="M155.23,28.78c-.19.07-.38.15-.57.22-.31-.1-.66-.06-.96.09,0-.1,0-.19-.02-.29.04-.33.12-.65.11-.99-.03-.78-.33-1.53-.79-2.15-1.02-1.37-2.66-2.02-4.2-2.64-3.67-1.48-7.47-2.62-11.29-3.64-2.2-.59-4.41-1.13-6.61-1.68-.1-.02-.19-.01-.26.01-2.16-2.66-5.51-4.29-9.06-4.48-.21-.05-.42-.09-.64-.1-1.45-.09-2.87.19-4.17.74-.06-.19-.22-.36-.45-.37-.53-.03-1.05-.08-1.58-.12-.03-.22-.18-.42-.47-.42-.14,0-.25.05-.33.13-.05-.04-.09-.07-.16-.09-.55-.15-1.11-.23-1.68-.27-.83-.11-1.65-.21-2.49-.26-.17-.01-.29.07-.37.19-.06-.03-.12-.05-.19-.05-.29-.03-.58-.06-.87-.1-.12-.01-.27.06-.35.14-.01.01-.02.04-.04.05-.38-.13-.86-.16-1.17-.2-2.31-.32-4.63-.59-6.95-.82-.22-.02-.36.08-.42.23-1.35-.83-2.61-1.85-3.86-2.75-1.25-.89-2.55-1.72-4-2.25-1.8-.67-3.71-.68-5.59-.44-2.09.26-4.17.63-6.25.96-.51.08-1.02.16-1.53.24-.42.07-.89.08-1.25.32-.2.13-.32.31-.36.5-2.9.05-5.79.3-8.65.73.06-.1.08-.22.03-.37-.31-.91.67-1.46,1.43-1.57.82-.12,1.9.17,2.42-.68.24-.39.21-.87.29-1.31.08-.49.22-.98.33-1.46.22-.94.37-1.91.03-2.84-.13-.35-.71-.54-.9-.12-.04.09-.07.17-.1.26-4.34-.45-8.67-.39-12.98.35-2.26.38-4.49.94-6.67,1.67-.97.32-1.93.68-2.85,1.14-.98.48-1.83,1.12-2.72,1.76-1.05.75-2.1,1.16-3.36,1.39-1.15.21-2.28.38-3.35.89-.2.1-.26.26-.24.43-.48.14-.96.3-1.44.48-.75.29-1.49.62-2.21.98-1.15.11-2.29.33-3.09,1.08-2.36.73-4.74,1.4-7.11,2.06-.52.14-.44,1.04.13.97.37-.04.75-.09,1.12-.13.02.19.14.37.35.43.62.19,1.18.03,1.73-.19.03.28.29.56.62.46,1.15-.35,2.25-.82,3.31-1.39,1.92-.73,3.88-1.35,5.83-1.98,1.5-.48,2.99-.97,4.46-1.52,1.11-.42,2.64-.8,3.2-1.97.03-.06.04-.12.05-.19.2-.16.41-.33.62-.48,1.6.17,2.76-.99,4-1.87,1.47-1.05,3.39-1.41,5.12-1.81,3.56-.82,7.2-1.25,10.85-1.32,0,.24.16.46.47.45,1.21-.06,2.4-.02,3.6.12-.05.25-.09.5-.12.76-.05.42.04.98-.15,1.37-.16.35-.63.39-.96.45-.87.16-1.73.48-2.36,1.12-.63.64-.92,1.52-.76,2.41.04.23.2.33.37.34-.25.04-.49.07-.74.12-.62.11-.36,1.06.26.95,3.05-.55,6.14-.85,9.24-.94.51.91,1.27,1.66,2.08,2.31.97.78,1.97,1.52,2.96,2.27-1.5,0-3,0-4.5,0-.28,0-.42.19-.46.4-2.41.09-4.82.17-7.22.29-2.52.13-5.05.35-7.5.95-1.2.3-2.37.69-3.5,1.2-1.16.52-2.24,1.18-3.48,1.49-.81.11-1.61.22-2.42.32-.7.04-1.41.06-2.1.1-1.43.09-2.85.19-4.28.3-3.26.25-6.51.55-9.76.9-.64.07-.63.91,0,.99.7.08,1.41.09,2.11.07-.01.27.15.54.47.53,4.71-.26,9.43-.42,14.12-.88,2.2-.22,4.4-.5,6.53-1.1,2.04-.58,4-1.43,5.82-2.5.13-.08.19-.2.21-.33,1.59-.14,3.17-.27,4.76-.41.16-.01.28-.1.36-.21,4.43-.33,8.87-.28,13.29.15.02.16.08.31.21.39.32.22.58.51.78.84-.02.04-.05.08-.06.13-.15.67-.23,1.36-.26,2.04-.09.17-.21.32-.34.46-.49.52-1.22.73-1.52,1.43-.09.22-.08.4.07.58-.04.05-.08.08-.12.13-.09.12-.1.24-.07.35-2,1.53-3.85,3.26-6.03,4.52-2.11,1.22-4.44,1.69-6.81,1.88-1.07,0-2.14.02-3.22.03.31-.29.23-.91-.28-.85-4.07.51-8.16.79-12.26.82-.11,0-.2.04-.27.08-2.85-.11-5.7-.22-8.54-.32-.22,0-.36.11-.43.26-4.07-.24-8.19.23-12.22-.51-.49-.09-.75.49-.53.79h-.05c-.63,0-.64.99,0,.99,4.43-.04,8.85-.09,13.28-.13.06.03.13.04.21.04l9.65-.08c.3.01.6.02.89.03.97.06,1.95.11,2.92.11.17,0,.3-.07.37-.18l5.36-.05c.06.03.13.04.2.04,1.14.02,2.28.03,3.43-.01.05.19.2.34.45.35.86.02,1.71-.06,2.55-.24.08.24.3.42.58.33.54-.19,1.09-.38,1.63-.56.25-.09.36-.32.34-.53,1.19-.38,2.38-.79,3.52-1.3,1.32-.58,2.46-1.44,3.59-2.32,1.29-1,2.57-2.01,3.85-3.02.16-.13.19-.28.15-.42.38-.23.74-.5,1.05-.83.16-.16.17-.36.09-.53,1.04-.65,1.68-1.87,1.4-3.12-.17-.73-.62-1.32-1.21-1.69-.12-.22-.26-.43-.45-.63-.04-.04-.09-.07-.13-.11,2.54.2,5.08.15,7.61-.17.13-.02.23-.08.3-.16,1.51.02,3.11-.13,4.23-1.11.43.02.86.06,1.28.14.28.06.48-.1.57-.3.08.07.17.12.31.13.99.08,1.98.16,2.97.24.08,0,.16,0,.22-.03.22.06.46.09.69.13.08.02.16.03.25.06,0,0,0,0,0,0,.04,0,.09.02.13.03.34.04.51-.28.47-.57.46.05.93.09,1.4.12.03.15.13.29.34.34.25.06.5.09.75.12,1.02.14,2.04.2,3.08.16.18,0,.3-.1.38-.21.53.09,1.06.12,1.6.08-.02.04-.03.09-.03.14,0,.04.01.09.02.13.02.08.07.16.13.22l.1.08c.08.04.16.07.25.07h.44c.07,0,.13-.01.19-.04.06-.02.11-.05.16-.1.05-.04.08-.1.1-.16.03-.06.05-.12.04-.19,0-.04-.01-.09-.02-.13,0,0,0-.01,0-.02.83.15,1.68.2,2.54.12-.56.36-1.09.77-1.57,1.23-.46.43-.72,1.01-.81,1.61-.37.21-.7.5-.97.89-.76,1.07-1.22,2.4-1.32,3.73-.16.34-.29.69-.36,1.06-.29,1.49.15,2.85.61,4.25.75,2.25,1.74,4.54,3.58,6.12.59.51,1.4.78,2.15.69.14.12.29.24.47.32,3.28,1.51,6.94,1.08,10.02-.73,1.51-.89,2.85-2.09,3.83-3.54.93-1.38,1.33-2.99,1.24-4.61.69-.73.94-1.79.76-2.86-.23-1.44-.74-2.75-1.46-3.92.39.1.79.2,1.18.29.01.13.08.25.25.32,2.63,1.21,5.28,2.41,8.12,2.99.18.04.31,0,.42-.09,1.43.47,2.87.94,4.3,1.41-.01.16.06.32.25.41.97.48,2,.72,3.07.74.03,0,.05.01.08.02-.07.24,0,.49.33.56,1.65.33,3.06,1.71,3.25,3.42-1,.03-2,.06-3.01.08-.92.01-1.85.01-2.77,0,0-.16-.07-.32-.23-.41-3.3-1.97-6.86-3.47-10.57-4.46-.16-.04-.3,0-.41.09-.3-.05-.62-.02-.96.14-.23.11-.32.47-.18.67.16.25.34.49.51.73-.13.05-.23.15-.3.26-.42-.21-.91.25-.66.68.11.19.23.36.35.54,0,.07-.03.15-.03.22-.01.2,0,.39.01.59-.03,0-.07,0-.1-.01-.58-.08-.83.62-.36.9-.24.23-.45.51-.54.87-.08.3.15.63.48.62,4.12-.12,8.23-.23,12.35-.35,1.63.05,3.25.1,4.88.15.51.02,1.28.16,1.84-.03.02.03.03.06.06.09.65.75,1.53.35,2.17-.18.11-.09.14-.23.13-.36l.14-.05c.59-.23.33-1.18-.26-.95ZM97.07,12.6c-1.67.45-3.35.91-5.06,1.2-1.72.29-3.46.31-5.2.31-1.81,0-3.62,0-5.43,0,0-.01.02-.02.03-.03.15-.25.04-.51-.18-.67-.99-.75-1.99-1.49-2.96-2.27-.61-.49-1.19-1.02-1.64-1.65.11,0,.23,0,.34,0,.2.09.42.14.64.15.06.25.27.45.58.33,2.18-.86,4.48-1.38,6.82-1.54.21-.01.35-.14.42-.29.92-.1,1.84-.17,2.75-.15,1.03.02,2.05.16,3.02.5.16.06.32.13.47.2-.07.19-.03.42.21.55,1.81.99,3.56,2.07,5.28,3.2.02.05.03.09.05.14-.05,0-.09,0-.14.02ZM127.06,26.81s-.02.08-.03.14c0,.02-.02.03-.03.07-.03.06-.06.11-.09.17-.07.13-.15.27-.23.4-.04.07-.36.46-.12.19.26-.28-.13.15-.15.17-.08.09-.16.18-.25.27-.21.22-.43.42-.66.62-.02.01-.46.4-.17.14.28-.24-.12.08-.18.12-.25.17-.5.33-.76.48-.24.13-.48.26-.72.37-.04.02-.05.03-.07.04-.11.05-.25.08-.34.12-.28.1-.57.18-.86.25-.14.03-.28.06-.41.09.04,0,.08,0,.11,0-.04,0-.08,0-.12,0,0,0-.01,0-.02,0-.25.05-.13.01,0,0-.25,0-.51.05-.75.05-.24,0-.51-.05-.76-.04-.13-.03-.27-.06-.4-.09-.14-.04-.28-.09-.42-.13-.02,0-.03,0-.05-.01,0,0,0,0-.01,0-.52-.24-1.1-.33-1.66-.26-.27-.23-.67-.54-.84-.85-.02-.05-.05-.09-.07-.12-.1-.15-.2-.31-.29-.47-.2-.34-.5-.78-.59-1.17.02.07.03.12.04.16-.02-.09-.05-.21-.08-.26-.08-.21-.16-.41-.23-.62-.24-.68-.46-1.37-.65-2.07.02-.02.03-.04.05-.06.3-.4.59-.79.89-1.19.47-.63.44-1.63.08-2.38,0,0,0,0,0-.01,0,0,0-.02.02-.03.6-.1,1.17-.36,1.63-.8.66-.63,1.45-.94,2.41-.99.2.04.41.06.63.06,3.3,0,5.76,1.95,6.29,5.22,0,.06.04.11.05.16-.12.41-.14.87-.05,1.34,0,0,0,0,0,.02-.02.15,0,.32,0,.47,0,0,0,0,0,0-.05.15-.07.31-.12.46Z"/>
    </g>
    <path class="cls-2" d="M31.02,20.2c-.06-.22-.11-.44-.17-.66-.03-.1-.07-.2-.11-.3.28-1.41-.49-3.07-2.35-3.07-.09,0-.17.02-.25.03-1.38-1.39-3.06-2.51-4.92-3.25-.79-.31-1.67-.02-2.3.55-.25-.09-.51-.16-.79-.19.39-.12.74-.32,1.03-.61.84-.93,1.73-1.82,2.67-2.66.24-.22.41-.49.51-.79.02-.04.03-.08.04-.12.05-.07.11-.12.15-.2.08-.2.17-.39.25-.59.12-.44.12-.87,0-1.31-.01-.03-.01-.06-.02-.09,0-.04,0-.08,0-.12,0-.01,0-.03,0-.04,0-.04,0-.08,0-.12,0,.02,0,.03,0,.05,0-.13,0-.26-.04-.39-.01-.33-.11-.63-.29-.92-.08-.16-.19-.29-.3-.41.9-1.34.39-3.61-1.53-3.9-.24-.08-.49-.13-.77-.13-2.82.04-5.65.09-8.47.13-.34,0-.68.09-.99.23-.35-.24-.8-.39-1.34-.39-1.41,0-2.19.98-2.35,2.06-.09.28-.13.58-.13.88-.05.01-.1,0-.16.02-.03,0-.05,0-.08.01-.56.06-1.12.06-1.69,0-.23-.04-.46-.04-.69,0-.33.01-.63.11-.92.29-.06.03-.1.08-.16.11-.01-.01-.02-.03-.03-.04-.4-.48-1-.8-1.81-.8-1.98,0-2.73,1.92-2.24,3.36,0,.04,0,.08,0,.12.04.8.37,1.42.89,1.84-.07.13-.13.27-.18.42-.28.78,0,1.68.56,2.31.07,1.12,0,2.23,0,3.35,0,1.7.26,3.32,1.02,4.85.26.52.79.9,1.37,1.09.3.35.69.62,1.17.73.44.1.89.08,1.31-.04.02.05.04.1.07.15.73,1.25,2.42,1.64,3.63,1.03-.02.39-.03.78-.04,1.16-.05,1.77.04,3.59.59,5.29.25.76.85,1.41,1.59,1.69.59.76,1.28,1.43,2.05,2,.15,1.1.94,2.1,2.38,2.1.23,0,.43-.03.63-.08.2.13.42.23.67.27.48.09.94.13,1.4.15.37.28.86.45,1.45.45.67,0,1.2-.23,1.59-.57.17,0,.34,0,.52-.02.34.2.75.33,1.24.33,1.32,0,2.09-.84,2.33-1.83.16-.08.32-.15.48-.24.3-.17.52-.39.7-.63,1.15-.21,1.77-1.13,1.88-2.13.48-.59.91-1.24,1.25-1.92.74-1.46,1.19-3.03,1.26-4.67.06-1.59-.46-2.94-1.55-3.86ZM27.3,25.44s-.13.37-.15.44c-.18.41-.4.81-.64,1.18-.03.05-.23.32-.27.38-.13.16-.27.32-.41.47-.17.18-.35.35-.53.51-.04.04-.26.21-.34.27-.34.24-.7.46-1.07.64-.06.03-.11.05-.17.08-.32.1-.64.2-.96.3-.15.05-.28.11-.42.18-.04,0-.09.01-.13.01-.28.01-.55.07-.81.16-.17,0-.35,0-.52,0,0,0-.06,0-.15-.01-.23-.06-.45-.12-.67-.19-.69-.22-.74-.24-1.38-.59-1.09-.59-1.68-1.08-2.53-2.16-.13-.17-.3-.3-.49-.41-.02-.1-.04-.21-.06-.31,0-.01,0-.01,0-.02,0-.03,0-.06,0-.11-.04-.65-.07-1.29-.06-1.94.01-.69.03-1.38.08-2.06,0-.15.03-.3.03-.46,0-.02,0-.02,0-.03,0-.03.02-.05.03-.09.04-.15.08-.29.11-.44,0-.03,0-.04.01-.06,0,0,0,0,0-.01.07-.11.13-.23.2-.34,0-.01.03-.05.06-.09.06-.07.18-.24.21-.27.09-.1.18-.2.27-.29.21-.22.43-.42.65-.62.1-.09.21-.18.31-.27.04-.04.09-.07.13-.1.24-.17.47-.33.72-.48.12-.07.24-.14.36-.2.03-.01.15-.06.22-.09.09-.03.2-.06.22-.07.02,0,.09-.03.17-.05.08,0,.17-.01.25,0,.17,0,.34.01.5.03.59.06,1.17-.2,1.62-.61.05.02.09.05.15.07-.31-.12.12.05.22.11.19.09.38.19.57.3.33.19.66.4.97.62.04.03.07.05.09.06.03.03.06.06.11.1.13.11.26.22.38.34.31.29.6.61.88.93.03.04.09.11.12.15.11.15.22.31.33.47.21.32.4.65.58,1,0,0,.03.07.07.16.06.39.12.79.19,1.18.06.38.26.71.53,1,.12.29.29.55.51.77-.04.16-.08.33-.13.49Z"/>
  </g>
</svg>